<mxfile host="Electron" modified="2024-10-08T10:13:12.712Z" agent="Mozilla/5.0 (X11; Linux x86_64) AppleWebKit/537.36 (KHTML, like Gecko) draw.io/24.1.0 Chrome/120.0.6099.109 Electron/28.1.0 Safari/537.36" etag="MGyjME-y6ZmyFDzNnw6v" version="24.1.0" type="device">
  <diagram name="Page-1" id="-cMVqA2Gkwa5aGeDibPs">
    <mxGraphModel dx="1762" dy="1243" grid="1" gridSize="10" guides="1" tooltips="1" connect="1" arrows="1" fold="1" page="0" pageScale="1" pageWidth="413" pageHeight="583" math="1" shadow="0">
      <root>
        <mxCell id="0" />
        <mxCell id="1" parent="0" />
        <mxCell id="eN8Zq5XajQ-hrPbZrUXH-4" value="" style="edgeStyle=orthogonalEdgeStyle;rounded=0;orthogonalLoop=1;jettySize=auto;html=1;exitX=1;exitY=0.5;exitDx=0;exitDy=0;" parent="1" source="HanA1OKdP7TFDTROJioc-21" target="eN8Zq5XajQ-hrPbZrUXH-3" edge="1">
          <mxGeometry relative="1" as="geometry">
            <mxPoint x="-200" y="160" as="sourcePoint" />
          </mxGeometry>
        </mxCell>
        <mxCell id="GCO7xrDp6TmdYOZJOnFd-4" value="&lt;span style=&quot;background-color: initial;&quot;&gt;^ C2&lt;/span&gt;" style="whiteSpace=wrap;html=1;aspect=fixed;" parent="1" vertex="1">
          <mxGeometry y="120" width="80" height="80" as="geometry" />
        </mxCell>
        <mxCell id="GCO7xrDp6TmdYOZJOnFd-127" style="edgeStyle=orthogonalEdgeStyle;rounded=0;orthogonalLoop=1;jettySize=auto;html=1;exitX=0.5;exitY=1;exitDx=0;exitDy=0;" parent="1" source="GCO7xrDp6TmdYOZJOnFd-99" edge="1">
          <mxGeometry relative="1" as="geometry">
            <mxPoint x="880.2" y="270.20000000000005" as="targetPoint" />
          </mxGeometry>
        </mxCell>
        <mxCell id="GCO7xrDp6TmdYOZJOnFd-99" value="$$\frac{1}{s}$$" style="rounded=0;whiteSpace=wrap;html=1;" parent="1" vertex="1">
          <mxGeometry x="840" y="200" width="80" height="80" as="geometry" />
        </mxCell>
        <mxCell id="GCO7xrDp6TmdYOZJOnFd-110" value="" style="endArrow=none;html=1;exitX=0.5;exitY=0;exitDx=0;exitDy=0;" parent="1" source="GCO7xrDp6TmdYOZJOnFd-99" edge="1">
          <mxGeometry width="50" height="50" relative="1" as="geometry">
            <mxPoint x="880" y="210" as="sourcePoint" />
            <mxPoint x="900" y="190" as="targetPoint" />
          </mxGeometry>
        </mxCell>
        <mxCell id="GCO7xrDp6TmdYOZJOnFd-111" value="" style="endArrow=none;html=1;" parent="1" edge="1">
          <mxGeometry width="50" height="50" relative="1" as="geometry">
            <mxPoint x="900" y="190" as="sourcePoint" />
            <mxPoint x="920" y="190" as="targetPoint" />
          </mxGeometry>
        </mxCell>
        <mxCell id="GCO7xrDp6TmdYOZJOnFd-112" value="&lt;span style=&quot;font-size: 9px;&quot;&gt;$$tMax$$&lt;/span&gt;" style="text;html=1;strokeColor=none;fillColor=none;align=center;verticalAlign=middle;whiteSpace=wrap;rounded=0;fontSize=15;" parent="1" vertex="1">
          <mxGeometry x="840" y="160" width="160" height="30" as="geometry" />
        </mxCell>
        <mxCell id="GCO7xrDp6TmdYOZJOnFd-113" value="" style="endArrow=none;html=1;" parent="1" edge="1">
          <mxGeometry width="50" height="50" relative="1" as="geometry">
            <mxPoint x="841" y="290" as="sourcePoint" />
            <mxPoint x="821" y="290" as="targetPoint" />
          </mxGeometry>
        </mxCell>
        <mxCell id="GCO7xrDp6TmdYOZJOnFd-114" value="&lt;font style=&quot;font-size: 9px;&quot;&gt;$$tMin$$&lt;/font&gt;" style="text;html=1;strokeColor=none;fillColor=none;align=center;verticalAlign=middle;whiteSpace=wrap;rounded=0;fontSize=15;" parent="1" vertex="1">
          <mxGeometry x="760" y="286" width="120" height="30" as="geometry" />
        </mxCell>
        <mxCell id="GCO7xrDp6TmdYOZJOnFd-115" value="" style="endArrow=none;html=1;exitX=0.5;exitY=0;exitDx=0;exitDy=0;entryX=0.25;entryY=1;entryDx=0;entryDy=0;" parent="1" target="GCO7xrDp6TmdYOZJOnFd-99" edge="1">
          <mxGeometry width="50" height="50" relative="1" as="geometry">
            <mxPoint x="841" y="290" as="sourcePoint" />
            <mxPoint x="861" y="270" as="targetPoint" />
          </mxGeometry>
        </mxCell>
        <mxCell id="qLZYFt0uQZEpN5fuRu8l-1" value="" style="edgeStyle=orthogonalEdgeStyle;rounded=0;orthogonalLoop=1;jettySize=auto;html=1;" parent="1" source="eN8Zq5XajQ-hrPbZrUXH-3" target="GCO7xrDp6TmdYOZJOnFd-4" edge="1">
          <mxGeometry relative="1" as="geometry" />
        </mxCell>
        <mxCell id="eN8Zq5XajQ-hrPbZrUXH-3" value="$$\frac{1}{ITfPu}$$" style="whiteSpace=wrap;html=1;aspect=fixed;" parent="1" vertex="1">
          <mxGeometry x="-160" y="120" width="80" height="80" as="geometry" />
        </mxCell>
        <mxCell id="qLZYFt0uQZEpN5fuRu8l-6" value="" style="whiteSpace=wrap;html=1;aspect=fixed;" parent="1" vertex="1">
          <mxGeometry x="400" y="80" width="80" height="80" as="geometry" />
        </mxCell>
        <mxCell id="qLZYFt0uQZEpN5fuRu8l-7" value="" style="endArrow=none;html=1;" parent="1" edge="1">
          <mxGeometry width="50" height="50" relative="1" as="geometry">
            <mxPoint x="428" y="134" as="sourcePoint" />
            <mxPoint x="452" y="104" as="targetPoint" />
          </mxGeometry>
        </mxCell>
        <mxCell id="qLZYFt0uQZEpN5fuRu8l-8" value="" style="endArrow=none;html=1;" parent="1" edge="1">
          <mxGeometry width="50" height="50" relative="1" as="geometry">
            <mxPoint x="452" y="104" as="sourcePoint" />
            <mxPoint x="472" y="104" as="targetPoint" />
          </mxGeometry>
        </mxCell>
        <mxCell id="qLZYFt0uQZEpN5fuRu8l-9" value="&lt;font style=&quot;font-size: 8px;&quot;&gt;$$VInvMaxPu$$&lt;/font&gt;" style="text;html=1;strokeColor=none;fillColor=none;align=center;verticalAlign=middle;whiteSpace=wrap;rounded=0;fontSize=15;" parent="1" vertex="1">
          <mxGeometry x="400" y="50" width="160" height="30" as="geometry" />
        </mxCell>
        <mxCell id="qLZYFt0uQZEpN5fuRu8l-10" value="" style="endArrow=none;html=1;" parent="1" edge="1">
          <mxGeometry width="50" height="50" relative="1" as="geometry">
            <mxPoint x="428" y="134" as="sourcePoint" />
            <mxPoint x="408" y="134" as="targetPoint" />
          </mxGeometry>
        </mxCell>
        <mxCell id="qLZYFt0uQZEpN5fuRu8l-11" value="&lt;font style=&quot;font-size: 9px;&quot;&gt;$$VInvMinPu$$&lt;/font&gt;" style="text;html=1;strokeColor=none;fillColor=none;align=center;verticalAlign=middle;whiteSpace=wrap;rounded=0;fontSize=15;" parent="1" vertex="1">
          <mxGeometry x="320" y="160" width="160" height="30" as="geometry" />
        </mxCell>
        <mxCell id="HanA1OKdP7TFDTROJioc-18" value="$$IRefPu$$" style="text;strokeColor=none;align=center;fillColor=none;html=1;verticalAlign=middle;whiteSpace=wrap;rounded=0;" parent="1" vertex="1">
          <mxGeometry x="2080" y="225" width="60" height="30" as="geometry" />
        </mxCell>
        <mxCell id="HanA1OKdP7TFDTROJioc-21" value="$$IPu$$" style="text;strokeColor=none;align=center;fillColor=none;html=1;verticalAlign=middle;whiteSpace=wrap;rounded=0;" parent="1" vertex="1">
          <mxGeometry x="-260" y="145" width="60" height="30" as="geometry" />
        </mxCell>
        <mxCell id="2_03Gmtgli69JXWUNX96-17" value="" style="edgeStyle=orthogonalEdgeStyle;rounded=0;orthogonalLoop=1;jettySize=auto;html=1;" parent="1" source="HV3P0yh9cOvrx5BpRkT5-2" target="2_03Gmtgli69JXWUNX96-3" edge="1">
          <mxGeometry relative="1" as="geometry" />
        </mxCell>
        <mxCell id="HV3P0yh9cOvrx5BpRkT5-2" value="&lt;table style=&quot;&quot;&gt;&lt;tbody&gt;&lt;tr&gt;&lt;td&gt;&lt;font style=&quot;font-size: 12px;&quot;&gt;$$-1$$&lt;/font&gt;&lt;/td&gt;&lt;/tr&gt;&lt;tr&gt;&lt;td&gt;&lt;font style=&quot;font-size: 12px;&quot;&gt;$$1$$&lt;/font&gt;&lt;/td&gt;&lt;/tr&gt;&lt;/tbody&gt;&lt;/table&gt;" style="whiteSpace=wrap;html=1;aspect=fixed;" parent="1" vertex="1">
          <mxGeometry x="160" y="80" width="80" height="80" as="geometry" />
        </mxCell>
        <mxCell id="HV3P0yh9cOvrx5BpRkT5-4" value="&lt;span style=&quot;background-color: initial;&quot;&gt;^ C1&lt;/span&gt;" style="whiteSpace=wrap;html=1;aspect=fixed;" parent="1" vertex="1">
          <mxGeometry y="-120" width="80" height="80" as="geometry" />
        </mxCell>
        <mxCell id="HV3P0yh9cOvrx5BpRkT5-6" value="&lt;span style=&quot;background-color: initial;&quot;&gt;$$1$$&lt;/span&gt;" style="whiteSpace=wrap;html=1;aspect=fixed;" parent="1" vertex="1">
          <mxGeometry width="80" height="80" as="geometry" />
        </mxCell>
        <mxCell id="HV3P0yh9cOvrx5BpRkT5-8" value="&lt;span style=&quot;background-color: initial;&quot;&gt;$$tScl$$&lt;/span&gt;" style="whiteSpace=wrap;html=1;aspect=fixed;" parent="1" vertex="1">
          <mxGeometry x="840" y="40" width="80" height="80" as="geometry" />
        </mxCell>
        <mxCell id="HV3P0yh9cOvrx5BpRkT5-11" value="" style="whiteSpace=wrap;html=1;aspect=fixed;" parent="1" vertex="1">
          <mxGeometry x="400" y="320" width="80" height="80" as="geometry" />
        </mxCell>
        <mxCell id="HV3P0yh9cOvrx5BpRkT5-12" value="" style="endArrow=none;html=1;startArrow=none;" parent="1" source="HV3P0yh9cOvrx5BpRkT5-20" edge="1">
          <mxGeometry width="50" height="50" relative="1" as="geometry">
            <mxPoint x="460" y="360" as="sourcePoint" />
            <mxPoint x="480" y="360" as="targetPoint" />
          </mxGeometry>
        </mxCell>
        <mxCell id="HV3P0yh9cOvrx5BpRkT5-13" value="" style="endArrow=none;html=1;" parent="1" edge="1">
          <mxGeometry width="50" height="50" relative="1" as="geometry">
            <mxPoint x="391" y="340" as="sourcePoint" />
            <mxPoint x="421" y="340" as="targetPoint" />
          </mxGeometry>
        </mxCell>
        <mxCell id="HV3P0yh9cOvrx5BpRkT5-14" value="" style="endArrow=none;html=1;" parent="1" edge="1">
          <mxGeometry width="50" height="50" relative="1" as="geometry">
            <mxPoint x="390" y="359.79999999999995" as="sourcePoint" />
            <mxPoint x="420" y="359.79999999999995" as="targetPoint" />
          </mxGeometry>
        </mxCell>
        <mxCell id="HV3P0yh9cOvrx5BpRkT5-15" value="" style="endArrow=none;html=1;" parent="1" edge="1">
          <mxGeometry width="50" height="50" relative="1" as="geometry">
            <mxPoint x="390" y="380" as="sourcePoint" />
            <mxPoint x="420" y="380" as="targetPoint" />
          </mxGeometry>
        </mxCell>
        <mxCell id="HV3P0yh9cOvrx5BpRkT5-16" value="" style="shape=waypoint;sketch=0;fillStyle=solid;size=4;pointerEvents=1;points=[];fillColor=none;resizable=0;rotatable=0;perimeter=centerPerimeter;snapToPoint=1;" parent="1" vertex="1">
          <mxGeometry x="410" y="330" width="20" height="20" as="geometry" />
        </mxCell>
        <mxCell id="HV3P0yh9cOvrx5BpRkT5-17" value="" style="shape=waypoint;sketch=0;fillStyle=solid;size=4;pointerEvents=1;points=[];fillColor=none;resizable=0;rotatable=0;perimeter=centerPerimeter;snapToPoint=1;" parent="1" vertex="1">
          <mxGeometry x="410" y="350" width="20" height="20" as="geometry" />
        </mxCell>
        <mxCell id="HV3P0yh9cOvrx5BpRkT5-18" value="" style="shape=waypoint;sketch=0;fillStyle=solid;size=4;pointerEvents=1;points=[];fillColor=none;resizable=0;rotatable=0;perimeter=centerPerimeter;snapToPoint=1;" parent="1" vertex="1">
          <mxGeometry x="410" y="370" width="20" height="20" as="geometry" />
        </mxCell>
        <mxCell id="HV3P0yh9cOvrx5BpRkT5-19" value="" style="endArrow=none;html=1;" parent="1" target="HV3P0yh9cOvrx5BpRkT5-20" edge="1">
          <mxGeometry width="50" height="50" relative="1" as="geometry">
            <mxPoint x="460" y="360" as="sourcePoint" />
            <mxPoint x="480" y="360" as="targetPoint" />
          </mxGeometry>
        </mxCell>
        <mxCell id="HV3P0yh9cOvrx5BpRkT5-20" value="" style="shape=waypoint;sketch=0;fillStyle=solid;size=4;pointerEvents=1;points=[];fillColor=none;resizable=0;rotatable=0;perimeter=centerPerimeter;snapToPoint=1;" parent="1" vertex="1">
          <mxGeometry x="451" y="350" width="20" height="20" as="geometry" />
        </mxCell>
        <mxCell id="HV3P0yh9cOvrx5BpRkT5-21" value="" style="endArrow=none;html=1;" parent="1" edge="1">
          <mxGeometry width="50" height="50" relative="1" as="geometry">
            <mxPoint x="420" y="370" as="sourcePoint" />
            <mxPoint x="460" y="360" as="targetPoint" />
          </mxGeometry>
        </mxCell>
        <mxCell id="HV3P0yh9cOvrx5BpRkT5-26" value="&lt;span style=&quot;background-color: initial;&quot;&gt;$$K1$$&lt;/span&gt;" style="whiteSpace=wrap;html=1;aspect=fixed;" parent="1" vertex="1">
          <mxGeometry x="280" y="-80" width="80" height="80" as="geometry" />
        </mxCell>
        <mxCell id="HV3P0yh9cOvrx5BpRkT5-29" value="&lt;span style=&quot;background-color: initial;&quot;&gt;$$FixedRu$$&lt;/span&gt;" style="whiteSpace=wrap;html=1;aspect=fixed;" parent="1" vertex="1">
          <mxGeometry x="240" y="200" width="80" height="80" as="geometry" />
        </mxCell>
        <mxCell id="HV3P0yh9cOvrx5BpRkT5-31" value="$$+$$" style="whiteSpace=wrap;html=1;aspect=fixed;" parent="1" vertex="1">
          <mxGeometry x="560" y="200" width="80" height="80" as="geometry" />
        </mxCell>
        <mxCell id="HV3P0yh9cOvrx5BpRkT5-37" value="&lt;span style=&quot;background-color: initial;&quot;&gt;$$\leq 1$$&lt;/span&gt;" style="whiteSpace=wrap;html=1;aspect=fixed;" parent="1" vertex="1">
          <mxGeometry x="240" y="320" width="80" height="80" as="geometry" />
        </mxCell>
        <mxCell id="2_03Gmtgli69JXWUNX96-16" value="" style="edgeStyle=orthogonalEdgeStyle;rounded=0;orthogonalLoop=1;jettySize=auto;html=1;" parent="1" source="2_03Gmtgli69JXWUNX96-1" target="HV3P0yh9cOvrx5BpRkT5-26" edge="1">
          <mxGeometry relative="1" as="geometry" />
        </mxCell>
        <mxCell id="2_03Gmtgli69JXWUNX96-1" value="&lt;table style=&quot;&quot;&gt;&lt;tbody&gt;&lt;tr&gt;&lt;td&gt;&lt;font style=&quot;font-size: 12px;&quot;&gt;$$1$$&lt;/font&gt;&lt;/td&gt;&lt;/tr&gt;&lt;tr&gt;&lt;td&gt;&lt;font style=&quot;font-size: 12px;&quot;&gt;$$-1$$&lt;/font&gt;&lt;/td&gt;&lt;/tr&gt;&lt;/tbody&gt;&lt;/table&gt;" style="whiteSpace=wrap;html=1;aspect=fixed;" parent="1" vertex="1">
          <mxGeometry x="160" y="-80" width="80" height="80" as="geometry" />
        </mxCell>
        <mxCell id="2_03Gmtgli69JXWUNX96-18" value="" style="edgeStyle=orthogonalEdgeStyle;rounded=0;orthogonalLoop=1;jettySize=auto;html=1;" parent="1" source="2_03Gmtgli69JXWUNX96-3" target="qLZYFt0uQZEpN5fuRu8l-6" edge="1">
          <mxGeometry relative="1" as="geometry" />
        </mxCell>
        <mxCell id="2_03Gmtgli69JXWUNX96-3" value="&lt;span style=&quot;background-color: initial;&quot;&gt;$$K2$$&lt;/span&gt;" style="whiteSpace=wrap;html=1;aspect=fixed;" parent="1" vertex="1">
          <mxGeometry x="280" y="80" width="80" height="80" as="geometry" />
        </mxCell>
        <mxCell id="2_03Gmtgli69JXWUNX96-4" value="&lt;span style=&quot;background-color: initial;&quot;&gt;$$FixedRd$$&lt;/span&gt;" style="whiteSpace=wrap;html=1;aspect=fixed;" parent="1" vertex="1">
          <mxGeometry x="240" y="440" width="80" height="80" as="geometry" />
        </mxCell>
        <mxCell id="2_03Gmtgli69JXWUNX96-5" value="" style="endArrow=classic;html=1;rounded=0;exitX=1;exitY=0.5;exitDx=0;exitDy=0;entryX=0;entryY=0.5;entryDx=0;entryDy=0;" parent="1" source="eN8Zq5XajQ-hrPbZrUXH-3" target="HV3P0yh9cOvrx5BpRkT5-37" edge="1">
          <mxGeometry width="50" height="50" relative="1" as="geometry">
            <mxPoint x="50" y="300" as="sourcePoint" />
            <mxPoint x="100" y="250" as="targetPoint" />
            <Array as="points">
              <mxPoint x="-40" y="160" />
              <mxPoint x="-40" y="360" />
            </Array>
          </mxGeometry>
        </mxCell>
        <mxCell id="2_03Gmtgli69JXWUNX96-6" value="" style="endArrow=classic;html=1;rounded=0;exitX=1;exitY=0.5;exitDx=0;exitDy=0;entryX=0.3;entryY=0.65;entryDx=0;entryDy=0;entryPerimeter=0;" parent="1" source="HV3P0yh9cOvrx5BpRkT5-29" target="HV3P0yh9cOvrx5BpRkT5-16" edge="1">
          <mxGeometry width="50" height="50" relative="1" as="geometry">
            <mxPoint x="50" y="300" as="sourcePoint" />
            <mxPoint x="100" y="250" as="targetPoint" />
            <Array as="points">
              <mxPoint x="360" y="240" />
              <mxPoint x="360" y="340" />
            </Array>
          </mxGeometry>
        </mxCell>
        <mxCell id="2_03Gmtgli69JXWUNX96-8" value="" style="endArrow=classic;html=1;rounded=0;exitX=1;exitY=0.5;exitDx=0;exitDy=0;entryX=0.95;entryY=1;entryDx=0;entryDy=0;entryPerimeter=0;" parent="1" source="2_03Gmtgli69JXWUNX96-4" target="HV3P0yh9cOvrx5BpRkT5-18" edge="1">
          <mxGeometry width="50" height="50" relative="1" as="geometry">
            <mxPoint x="50" y="300" as="sourcePoint" />
            <mxPoint x="100" y="250" as="targetPoint" />
            <Array as="points">
              <mxPoint x="360" y="480" />
              <mxPoint x="360" y="380" />
            </Array>
          </mxGeometry>
        </mxCell>
        <mxCell id="2_03Gmtgli69JXWUNX96-10" value="" style="endArrow=classic;html=1;rounded=0;exitX=1;exitY=0.5;exitDx=0;exitDy=0;" parent="1" source="HV3P0yh9cOvrx5BpRkT5-37" target="HV3P0yh9cOvrx5BpRkT5-17" edge="1">
          <mxGeometry width="50" height="50" relative="1" as="geometry">
            <mxPoint x="50" y="300" as="sourcePoint" />
            <mxPoint x="100" y="250" as="targetPoint" />
          </mxGeometry>
        </mxCell>
        <mxCell id="2_03Gmtgli69JXWUNX96-11" value="" style="endArrow=classic;html=1;rounded=0;exitX=1;exitY=0.5;exitDx=0;exitDy=0;entryX=0;entryY=0.5;entryDx=0;entryDy=0;" parent="1" source="eN8Zq5XajQ-hrPbZrUXH-3" target="HV3P0yh9cOvrx5BpRkT5-4" edge="1">
          <mxGeometry width="50" height="50" relative="1" as="geometry">
            <mxPoint x="50" y="60" as="sourcePoint" />
            <mxPoint x="100" y="10" as="targetPoint" />
            <Array as="points">
              <mxPoint x="-40" y="160" />
              <mxPoint x="-40" y="-80" />
            </Array>
          </mxGeometry>
        </mxCell>
        <mxCell id="2_03Gmtgli69JXWUNX96-12" value="" style="endArrow=classic;html=1;rounded=0;exitX=1;exitY=0.5;exitDx=0;exitDy=0;entryX=0;entryY=0.25;entryDx=0;entryDy=0;" parent="1" source="HV3P0yh9cOvrx5BpRkT5-4" target="2_03Gmtgli69JXWUNX96-1" edge="1">
          <mxGeometry width="50" height="50" relative="1" as="geometry">
            <mxPoint x="50" y="60" as="sourcePoint" />
            <mxPoint x="100" y="10" as="targetPoint" />
            <Array as="points">
              <mxPoint x="120" y="-80" />
              <mxPoint x="120" y="-60" />
            </Array>
          </mxGeometry>
        </mxCell>
        <mxCell id="2_03Gmtgli69JXWUNX96-13" value="" style="endArrow=classic;html=1;rounded=0;exitX=1;exitY=0.5;exitDx=0;exitDy=0;entryX=0;entryY=0.75;entryDx=0;entryDy=0;" parent="1" source="GCO7xrDp6TmdYOZJOnFd-4" target="HV3P0yh9cOvrx5BpRkT5-2" edge="1">
          <mxGeometry width="50" height="50" relative="1" as="geometry">
            <mxPoint x="50" y="60" as="sourcePoint" />
            <mxPoint x="100" y="10" as="targetPoint" />
            <Array as="points">
              <mxPoint x="120" y="160" />
              <mxPoint x="120" y="140" />
            </Array>
          </mxGeometry>
        </mxCell>
        <mxCell id="2_03Gmtgli69JXWUNX96-14" value="" style="endArrow=classic;html=1;rounded=0;exitX=1;exitY=0.5;exitDx=0;exitDy=0;entryX=0;entryY=0.75;entryDx=0;entryDy=0;" parent="1" source="HV3P0yh9cOvrx5BpRkT5-6" target="2_03Gmtgli69JXWUNX96-1" edge="1">
          <mxGeometry width="50" height="50" relative="1" as="geometry">
            <mxPoint x="50" y="60" as="sourcePoint" />
            <mxPoint x="100" y="10" as="targetPoint" />
            <Array as="points">
              <mxPoint x="120" y="40" />
              <mxPoint x="120" y="-20" />
            </Array>
          </mxGeometry>
        </mxCell>
        <mxCell id="2_03Gmtgli69JXWUNX96-15" value="" style="endArrow=classic;html=1;rounded=0;exitX=1;exitY=0.5;exitDx=0;exitDy=0;entryX=0;entryY=0.25;entryDx=0;entryDy=0;" parent="1" source="HV3P0yh9cOvrx5BpRkT5-6" target="HV3P0yh9cOvrx5BpRkT5-2" edge="1">
          <mxGeometry width="50" height="50" relative="1" as="geometry">
            <mxPoint x="50" y="60" as="sourcePoint" />
            <mxPoint x="100" y="10" as="targetPoint" />
            <Array as="points">
              <mxPoint x="120" y="40" />
              <mxPoint x="120" y="100" />
            </Array>
          </mxGeometry>
        </mxCell>
        <mxCell id="2_03Gmtgli69JXWUNX96-19" value="" style="endArrow=classic;html=1;rounded=0;exitX=1;exitY=0.5;exitDx=0;exitDy=0;entryX=0;entryY=0.25;entryDx=0;entryDy=0;" parent="1" source="qLZYFt0uQZEpN5fuRu8l-6" target="HV3P0yh9cOvrx5BpRkT5-31" edge="1">
          <mxGeometry width="50" height="50" relative="1" as="geometry">
            <mxPoint x="50" y="60" as="sourcePoint" />
            <mxPoint x="100" y="10" as="targetPoint" />
            <Array as="points">
              <mxPoint x="520" y="120" />
              <mxPoint x="520" y="220" />
            </Array>
          </mxGeometry>
        </mxCell>
        <mxCell id="2_03Gmtgli69JXWUNX96-20" value="" style="endArrow=classic;html=1;rounded=0;exitX=1;exitY=0.5;exitDx=0;exitDy=0;entryX=0;entryY=0.75;entryDx=0;entryDy=0;" parent="1" source="HV3P0yh9cOvrx5BpRkT5-11" target="HV3P0yh9cOvrx5BpRkT5-31" edge="1">
          <mxGeometry width="50" height="50" relative="1" as="geometry">
            <mxPoint x="50" y="60" as="sourcePoint" />
            <mxPoint x="100" y="10" as="targetPoint" />
            <Array as="points">
              <mxPoint x="520" y="360" />
              <mxPoint x="520" y="260" />
            </Array>
          </mxGeometry>
        </mxCell>
        <mxCell id="2_03Gmtgli69JXWUNX96-21" value="" style="ellipse;whiteSpace=wrap;html=1;aspect=fixed;" parent="1" vertex="1">
          <mxGeometry x="700" y="220" width="40" height="40" as="geometry" />
        </mxCell>
        <mxCell id="2_03Gmtgli69JXWUNX96-22" value="+" style="text;html=1;strokeColor=none;fillColor=none;align=center;verticalAlign=middle;whiteSpace=wrap;rounded=0;fontSize=20;" parent="1" vertex="1">
          <mxGeometry x="660" y="209" width="60" height="31" as="geometry" />
        </mxCell>
        <mxCell id="2_03Gmtgli69JXWUNX96-23" value="-" style="text;html=1;strokeColor=none;fillColor=none;align=center;verticalAlign=middle;whiteSpace=wrap;rounded=0;fontSize=20;" parent="1" vertex="1">
          <mxGeometry x="713" y="260" width="60" height="30" as="geometry" />
        </mxCell>
        <mxCell id="2_03Gmtgli69JXWUNX96-24" value="" style="endArrow=classic;html=1;rounded=0;exitX=1;exitY=0.5;exitDx=0;exitDy=0;entryX=0;entryY=0.5;entryDx=0;entryDy=0;" parent="1" source="HV3P0yh9cOvrx5BpRkT5-31" target="2_03Gmtgli69JXWUNX96-21" edge="1">
          <mxGeometry width="50" height="50" relative="1" as="geometry">
            <mxPoint x="530" y="180" as="sourcePoint" />
            <mxPoint x="580" y="130" as="targetPoint" />
          </mxGeometry>
        </mxCell>
        <mxCell id="2_03Gmtgli69JXWUNX96-25" value="&lt;table style=&quot;&quot;&gt;&lt;tbody&gt;&lt;tr&gt;&lt;td&gt;&lt;font style=&quot;font-size: 12px;&quot;&gt;$$1$$&lt;/font&gt;&lt;/td&gt;&lt;/tr&gt;&lt;tr&gt;&lt;td&gt;&lt;font style=&quot;font-size: 12px;&quot;&gt;$$-1$$&lt;/font&gt;&lt;/td&gt;&lt;/tr&gt;&lt;/tbody&gt;&lt;/table&gt;" style="whiteSpace=wrap;html=1;aspect=fixed;" parent="1" vertex="1">
          <mxGeometry x="1000" y="120" width="80" height="80" as="geometry" />
        </mxCell>
        <mxCell id="2_03Gmtgli69JXWUNX96-26" value="&lt;span style=&quot;background-color: initial;&quot;&gt;$$KFb$$&lt;/span&gt;" style="whiteSpace=wrap;html=1;aspect=fixed;" parent="1" vertex="1">
          <mxGeometry x="840" y="320" width="80" height="80" as="geometry" />
        </mxCell>
        <mxCell id="2_03Gmtgli69JXWUNX96-27" value="" style="endArrow=classic;html=1;rounded=0;exitX=1;exitY=0.5;exitDx=0;exitDy=0;entryX=0;entryY=0.5;entryDx=0;entryDy=0;" parent="1" source="2_03Gmtgli69JXWUNX96-21" target="GCO7xrDp6TmdYOZJOnFd-99" edge="1">
          <mxGeometry width="50" height="50" relative="1" as="geometry">
            <mxPoint x="530" y="180" as="sourcePoint" />
            <mxPoint x="580" y="130" as="targetPoint" />
          </mxGeometry>
        </mxCell>
        <mxCell id="2_03Gmtgli69JXWUNX96-28" value="" style="endArrow=classic;html=1;rounded=0;exitX=1;exitY=0.5;exitDx=0;exitDy=0;entryX=0;entryY=0.75;entryDx=0;entryDy=0;" parent="1" source="GCO7xrDp6TmdYOZJOnFd-99" target="2_03Gmtgli69JXWUNX96-25" edge="1">
          <mxGeometry width="50" height="50" relative="1" as="geometry">
            <mxPoint x="530" y="180" as="sourcePoint" />
            <mxPoint x="580" y="130" as="targetPoint" />
            <Array as="points">
              <mxPoint x="960" y="240" />
              <mxPoint x="960" y="180" />
            </Array>
          </mxGeometry>
        </mxCell>
        <mxCell id="-JaRf_K257pUA9tKJ0g3-1" value="" style="endArrow=classic;html=1;rounded=0;exitX=1;exitY=0.5;exitDx=0;exitDy=0;entryX=0;entryY=0.25;entryDx=0;entryDy=0;" parent="1" source="HV3P0yh9cOvrx5BpRkT5-8" target="2_03Gmtgli69JXWUNX96-25" edge="1">
          <mxGeometry width="50" height="50" relative="1" as="geometry">
            <mxPoint x="410" y="280" as="sourcePoint" />
            <mxPoint x="460" y="230" as="targetPoint" />
            <Array as="points">
              <mxPoint x="960" y="80" />
              <mxPoint x="960" y="140" />
            </Array>
          </mxGeometry>
        </mxCell>
        <mxCell id="-JaRf_K257pUA9tKJ0g3-2" value="" style="endArrow=classic;html=1;rounded=0;exitX=1;exitY=0.5;exitDx=0;exitDy=0;entryX=1;entryY=0.5;entryDx=0;entryDy=0;" parent="1" source="GCO7xrDp6TmdYOZJOnFd-99" target="2_03Gmtgli69JXWUNX96-26" edge="1">
          <mxGeometry width="50" height="50" relative="1" as="geometry">
            <mxPoint x="410" y="280" as="sourcePoint" />
            <mxPoint x="460" y="230" as="targetPoint" />
            <Array as="points">
              <mxPoint x="960" y="240" />
              <mxPoint x="960" y="360" />
            </Array>
          </mxGeometry>
        </mxCell>
        <mxCell id="-JaRf_K257pUA9tKJ0g3-3" value="" style="endArrow=classic;html=1;rounded=0;exitX=0;exitY=0.5;exitDx=0;exitDy=0;entryX=0.5;entryY=1;entryDx=0;entryDy=0;" parent="1" source="2_03Gmtgli69JXWUNX96-26" target="2_03Gmtgli69JXWUNX96-21" edge="1">
          <mxGeometry width="50" height="50" relative="1" as="geometry">
            <mxPoint x="410" y="280" as="sourcePoint" />
            <mxPoint x="460" y="230" as="targetPoint" />
            <Array as="points">
              <mxPoint x="720" y="360" />
            </Array>
          </mxGeometry>
        </mxCell>
        <mxCell id="-JaRf_K257pUA9tKJ0g3-4" value="&lt;span style=&quot;background-color: initial;&quot;&gt;&lt;font style=&quot;font-size: 10px;&quot;&gt;$$\geq Kzru*tScl$$&lt;/font&gt;&lt;/span&gt;" style="whiteSpace=wrap;html=1;aspect=fixed;" parent="1" vertex="1">
          <mxGeometry x="1160" y="120" width="80" height="80" as="geometry" />
        </mxCell>
        <mxCell id="-JaRf_K257pUA9tKJ0g3-5" value="&lt;span style=&quot;background-color: initial;&quot;&gt;$$\leq 0$$&lt;/span&gt;" style="whiteSpace=wrap;html=1;aspect=fixed;" parent="1" vertex="1">
          <mxGeometry x="1160" y="320" width="80" height="80" as="geometry" />
        </mxCell>
        <mxCell id="-JaRf_K257pUA9tKJ0g3-6" value="" style="endArrow=classic;html=1;rounded=0;exitX=1;exitY=0.5;exitDx=0;exitDy=0;entryX=0;entryY=0.5;entryDx=0;entryDy=0;" parent="1" source="2_03Gmtgli69JXWUNX96-25" target="-JaRf_K257pUA9tKJ0g3-4" edge="1">
          <mxGeometry width="50" height="50" relative="1" as="geometry">
            <mxPoint x="1170" y="280" as="sourcePoint" />
            <mxPoint x="1220" y="230" as="targetPoint" />
          </mxGeometry>
        </mxCell>
        <mxCell id="-JaRf_K257pUA9tKJ0g3-7" value="" style="endArrow=classic;html=1;rounded=0;exitX=1;exitY=0.5;exitDx=0;exitDy=0;entryX=0;entryY=0.5;entryDx=0;entryDy=0;" parent="1" source="2_03Gmtgli69JXWUNX96-25" target="-JaRf_K257pUA9tKJ0g3-5" edge="1">
          <mxGeometry width="50" height="50" relative="1" as="geometry">
            <mxPoint x="1170" y="280" as="sourcePoint" />
            <mxPoint x="1220" y="230" as="targetPoint" />
            <Array as="points">
              <mxPoint x="1120" y="160" />
              <mxPoint x="1120" y="360" />
            </Array>
          </mxGeometry>
        </mxCell>
        <mxCell id="-JaRf_K257pUA9tKJ0g3-8" value="$$tErr$$" style="text;strokeColor=none;align=center;fillColor=none;html=1;verticalAlign=middle;whiteSpace=wrap;rounded=0;" parent="1" vertex="1">
          <mxGeometry x="2080" y="25" width="60" height="30" as="geometry" />
        </mxCell>
        <mxCell id="-JaRf_K257pUA9tKJ0g3-9" value="" style="endArrow=classic;html=1;rounded=0;exitX=1;exitY=0.5;exitDx=0;exitDy=0;entryX=0;entryY=0.5;entryDx=0;entryDy=0;" parent="1" source="2_03Gmtgli69JXWUNX96-25" target="-JaRf_K257pUA9tKJ0g3-8" edge="1">
          <mxGeometry width="50" height="50" relative="1" as="geometry">
            <mxPoint x="1170" y="280" as="sourcePoint" />
            <mxPoint x="1220" y="230" as="targetPoint" />
            <Array as="points">
              <mxPoint x="1120" y="160" />
              <mxPoint x="1120" y="40" />
            </Array>
          </mxGeometry>
        </mxCell>
        <mxCell id="g2HDWmR6_UbopgEiNKFt-9" value="" style="edgeStyle=orthogonalEdgeStyle;rounded=0;orthogonalLoop=1;jettySize=auto;html=1;" edge="1" parent="1" source="-JaRf_K257pUA9tKJ0g3-10" target="g2HDWmR6_UbopgEiNKFt-8">
          <mxGeometry relative="1" as="geometry" />
        </mxCell>
        <mxCell id="-JaRf_K257pUA9tKJ0g3-10" value="" style="whiteSpace=wrap;html=1;aspect=fixed;" parent="1" vertex="1">
          <mxGeometry x="1680" y="200" width="80" height="80" as="geometry" />
        </mxCell>
        <mxCell id="-JaRf_K257pUA9tKJ0g3-11" value="" style="endArrow=none;html=1;startArrow=none;" parent="1" source="-JaRf_K257pUA9tKJ0g3-19" edge="1">
          <mxGeometry width="50" height="50" relative="1" as="geometry">
            <mxPoint x="1740" y="240" as="sourcePoint" />
            <mxPoint x="1760" y="240" as="targetPoint" />
          </mxGeometry>
        </mxCell>
        <mxCell id="-JaRf_K257pUA9tKJ0g3-12" value="" style="endArrow=none;html=1;" parent="1" edge="1">
          <mxGeometry width="50" height="50" relative="1" as="geometry">
            <mxPoint x="1671" y="220" as="sourcePoint" />
            <mxPoint x="1701" y="220" as="targetPoint" />
          </mxGeometry>
        </mxCell>
        <mxCell id="-JaRf_K257pUA9tKJ0g3-13" value="" style="endArrow=none;html=1;" parent="1" edge="1">
          <mxGeometry width="50" height="50" relative="1" as="geometry">
            <mxPoint x="1670" y="239.79999999999995" as="sourcePoint" />
            <mxPoint x="1700" y="239.79999999999995" as="targetPoint" />
          </mxGeometry>
        </mxCell>
        <mxCell id="-JaRf_K257pUA9tKJ0g3-14" value="" style="endArrow=none;html=1;" parent="1" edge="1">
          <mxGeometry width="50" height="50" relative="1" as="geometry">
            <mxPoint x="1670" y="260" as="sourcePoint" />
            <mxPoint x="1700" y="260" as="targetPoint" />
          </mxGeometry>
        </mxCell>
        <mxCell id="-JaRf_K257pUA9tKJ0g3-15" value="" style="shape=waypoint;sketch=0;fillStyle=solid;size=4;pointerEvents=1;points=[];fillColor=none;resizable=0;rotatable=0;perimeter=centerPerimeter;snapToPoint=1;" parent="1" vertex="1">
          <mxGeometry x="1690" y="210" width="20" height="20" as="geometry" />
        </mxCell>
        <mxCell id="-JaRf_K257pUA9tKJ0g3-16" value="" style="shape=waypoint;sketch=0;fillStyle=solid;size=4;pointerEvents=1;points=[];fillColor=none;resizable=0;rotatable=0;perimeter=centerPerimeter;snapToPoint=1;" parent="1" vertex="1">
          <mxGeometry x="1690" y="230" width="20" height="20" as="geometry" />
        </mxCell>
        <mxCell id="-JaRf_K257pUA9tKJ0g3-17" value="" style="shape=waypoint;sketch=0;fillStyle=solid;size=4;pointerEvents=1;points=[];fillColor=none;resizable=0;rotatable=0;perimeter=centerPerimeter;snapToPoint=1;" parent="1" vertex="1">
          <mxGeometry x="1690" y="250" width="20" height="20" as="geometry" />
        </mxCell>
        <mxCell id="-JaRf_K257pUA9tKJ0g3-18" value="" style="endArrow=none;html=1;" parent="1" target="-JaRf_K257pUA9tKJ0g3-19" edge="1">
          <mxGeometry width="50" height="50" relative="1" as="geometry">
            <mxPoint x="1740" y="240" as="sourcePoint" />
            <mxPoint x="1760" y="240" as="targetPoint" />
          </mxGeometry>
        </mxCell>
        <mxCell id="-JaRf_K257pUA9tKJ0g3-19" value="" style="shape=waypoint;sketch=0;fillStyle=solid;size=4;pointerEvents=1;points=[];fillColor=none;resizable=0;rotatable=0;perimeter=centerPerimeter;snapToPoint=1;" parent="1" vertex="1">
          <mxGeometry x="1731" y="230" width="20" height="20" as="geometry" />
        </mxCell>
        <mxCell id="-JaRf_K257pUA9tKJ0g3-20" value="" style="endArrow=none;html=1;" parent="1" edge="1">
          <mxGeometry width="50" height="50" relative="1" as="geometry">
            <mxPoint x="1700" y="250" as="sourcePoint" />
            <mxPoint x="1740" y="240" as="targetPoint" />
          </mxGeometry>
        </mxCell>
        <mxCell id="-JaRf_K257pUA9tKJ0g3-21" value="&lt;span style=&quot;background-color: initial;&quot;&gt;$$0$$&lt;/span&gt;" style="whiteSpace=wrap;html=1;aspect=fixed;" parent="1" vertex="1">
          <mxGeometry x="1160" y="600" width="80" height="80" as="geometry" />
        </mxCell>
        <mxCell id="-JaRf_K257pUA9tKJ0g3-22" value="&lt;font style=&quot;font-size: 9px;&quot;&gt;$$ILimPu$$&lt;/font&gt;" style="text;html=1;strokeColor=none;fillColor=none;align=center;verticalAlign=middle;whiteSpace=wrap;rounded=0;fontSize=15;" parent="1" vertex="1">
          <mxGeometry x="1880" y="286" width="120" height="30" as="geometry" />
        </mxCell>
        <mxCell id="-JaRf_K257pUA9tKJ0g3-23" value="&lt;span style=&quot;font-size: 9px;&quot;&gt;$$IInstPu$$&lt;/span&gt;" style="text;html=1;strokeColor=none;fillColor=none;align=center;verticalAlign=middle;whiteSpace=wrap;rounded=0;fontSize=15;" parent="1" vertex="1">
          <mxGeometry x="1960" y="160" width="160" height="30" as="geometry" />
        </mxCell>
        <mxCell id="-JaRf_K257pUA9tKJ0g3-24" style="edgeStyle=orthogonalEdgeStyle;rounded=0;orthogonalLoop=1;jettySize=auto;html=1;exitX=0.5;exitY=1;exitDx=0;exitDy=0;" parent="1" source="-JaRf_K257pUA9tKJ0g3-25" edge="1">
          <mxGeometry relative="1" as="geometry">
            <mxPoint x="2000.2" y="270.20000000000005" as="targetPoint" />
          </mxGeometry>
        </mxCell>
        <mxCell id="-JaRf_K257pUA9tKJ0g3-30" value="" style="edgeStyle=orthogonalEdgeStyle;rounded=0;orthogonalLoop=1;jettySize=auto;html=1;" parent="1" source="-JaRf_K257pUA9tKJ0g3-25" target="HanA1OKdP7TFDTROJioc-18" edge="1">
          <mxGeometry relative="1" as="geometry" />
        </mxCell>
        <mxCell id="-JaRf_K257pUA9tKJ0g3-25" value="$$\frac{1}{s}$$" style="rounded=0;whiteSpace=wrap;html=1;" parent="1" vertex="1">
          <mxGeometry x="1960" y="200" width="80" height="80" as="geometry" />
        </mxCell>
        <mxCell id="-JaRf_K257pUA9tKJ0g3-26" value="" style="endArrow=none;html=1;exitX=0.5;exitY=0;exitDx=0;exitDy=0;" parent="1" source="-JaRf_K257pUA9tKJ0g3-25" edge="1">
          <mxGeometry width="50" height="50" relative="1" as="geometry">
            <mxPoint x="2000" y="210" as="sourcePoint" />
            <mxPoint x="2020" y="190" as="targetPoint" />
          </mxGeometry>
        </mxCell>
        <mxCell id="-JaRf_K257pUA9tKJ0g3-27" value="" style="endArrow=none;html=1;" parent="1" edge="1">
          <mxGeometry width="50" height="50" relative="1" as="geometry">
            <mxPoint x="2020" y="190" as="sourcePoint" />
            <mxPoint x="2040" y="190" as="targetPoint" />
          </mxGeometry>
        </mxCell>
        <mxCell id="-JaRf_K257pUA9tKJ0g3-28" value="" style="endArrow=none;html=1;" parent="1" edge="1">
          <mxGeometry width="50" height="50" relative="1" as="geometry">
            <mxPoint x="1961" y="290" as="sourcePoint" />
            <mxPoint x="1941" y="290" as="targetPoint" />
          </mxGeometry>
        </mxCell>
        <mxCell id="-JaRf_K257pUA9tKJ0g3-29" value="" style="endArrow=none;html=1;exitX=0.5;exitY=0;exitDx=0;exitDy=0;entryX=0.25;entryY=1;entryDx=0;entryDy=0;" parent="1" target="-JaRf_K257pUA9tKJ0g3-25" edge="1">
          <mxGeometry width="50" height="50" relative="1" as="geometry">
            <mxPoint x="1961" y="290" as="sourcePoint" />
            <mxPoint x="1981" y="270" as="targetPoint" />
          </mxGeometry>
        </mxCell>
        <mxCell id="-JaRf_K257pUA9tKJ0g3-31" value="" style="endArrow=classic;html=1;rounded=0;exitX=1;exitY=0.5;exitDx=0;exitDy=0;entryX=0.35;entryY=0.65;entryDx=0;entryDy=0;entryPerimeter=0;" parent="1" source="-JaRf_K257pUA9tKJ0g3-4" target="-JaRf_K257pUA9tKJ0g3-16" edge="1">
          <mxGeometry width="50" height="50" relative="1" as="geometry">
            <mxPoint x="1130" y="240" as="sourcePoint" />
            <mxPoint x="1180" y="190" as="targetPoint" />
            <Array as="points">
              <mxPoint x="1360" y="160" />
              <mxPoint x="1360" y="240" />
            </Array>
          </mxGeometry>
        </mxCell>
        <mxCell id="-JaRf_K257pUA9tKJ0g3-32" value="" style="whiteSpace=wrap;html=1;aspect=fixed;" parent="1" vertex="1">
          <mxGeometry x="1520" y="320" width="80" height="80" as="geometry" />
        </mxCell>
        <mxCell id="-JaRf_K257pUA9tKJ0g3-33" value="" style="endArrow=none;html=1;startArrow=none;" parent="1" source="-JaRf_K257pUA9tKJ0g3-41" edge="1">
          <mxGeometry width="50" height="50" relative="1" as="geometry">
            <mxPoint x="1580" y="360" as="sourcePoint" />
            <mxPoint x="1600" y="360" as="targetPoint" />
          </mxGeometry>
        </mxCell>
        <mxCell id="-JaRf_K257pUA9tKJ0g3-34" value="" style="endArrow=none;html=1;" parent="1" edge="1">
          <mxGeometry width="50" height="50" relative="1" as="geometry">
            <mxPoint x="1511" y="340" as="sourcePoint" />
            <mxPoint x="1541" y="340" as="targetPoint" />
          </mxGeometry>
        </mxCell>
        <mxCell id="-JaRf_K257pUA9tKJ0g3-35" value="" style="endArrow=none;html=1;" parent="1" edge="1">
          <mxGeometry width="50" height="50" relative="1" as="geometry">
            <mxPoint x="1510" y="359.79999999999995" as="sourcePoint" />
            <mxPoint x="1540" y="359.79999999999995" as="targetPoint" />
          </mxGeometry>
        </mxCell>
        <mxCell id="-JaRf_K257pUA9tKJ0g3-36" value="" style="endArrow=none;html=1;" parent="1" edge="1">
          <mxGeometry width="50" height="50" relative="1" as="geometry">
            <mxPoint x="1510" y="380" as="sourcePoint" />
            <mxPoint x="1540" y="380" as="targetPoint" />
          </mxGeometry>
        </mxCell>
        <mxCell id="-JaRf_K257pUA9tKJ0g3-37" value="" style="shape=waypoint;sketch=0;fillStyle=solid;size=4;pointerEvents=1;points=[];fillColor=none;resizable=0;rotatable=0;perimeter=centerPerimeter;snapToPoint=1;" parent="1" vertex="1">
          <mxGeometry x="1530" y="330" width="20" height="20" as="geometry" />
        </mxCell>
        <mxCell id="-JaRf_K257pUA9tKJ0g3-38" value="" style="shape=waypoint;sketch=0;fillStyle=solid;size=4;pointerEvents=1;points=[];fillColor=none;resizable=0;rotatable=0;perimeter=centerPerimeter;snapToPoint=1;" parent="1" vertex="1">
          <mxGeometry x="1530" y="350" width="20" height="20" as="geometry" />
        </mxCell>
        <mxCell id="-JaRf_K257pUA9tKJ0g3-39" value="" style="shape=waypoint;sketch=0;fillStyle=solid;size=4;pointerEvents=1;points=[];fillColor=none;resizable=0;rotatable=0;perimeter=centerPerimeter;snapToPoint=1;" parent="1" vertex="1">
          <mxGeometry x="1530" y="370" width="20" height="20" as="geometry" />
        </mxCell>
        <mxCell id="-JaRf_K257pUA9tKJ0g3-40" value="" style="endArrow=none;html=1;" parent="1" target="-JaRf_K257pUA9tKJ0g3-41" edge="1">
          <mxGeometry width="50" height="50" relative="1" as="geometry">
            <mxPoint x="1580" y="360" as="sourcePoint" />
            <mxPoint x="1600" y="360" as="targetPoint" />
          </mxGeometry>
        </mxCell>
        <mxCell id="-JaRf_K257pUA9tKJ0g3-41" value="" style="shape=waypoint;sketch=0;fillStyle=solid;size=4;pointerEvents=1;points=[];fillColor=none;resizable=0;rotatable=0;perimeter=centerPerimeter;snapToPoint=1;" parent="1" vertex="1">
          <mxGeometry x="1571" y="350" width="20" height="20" as="geometry" />
        </mxCell>
        <mxCell id="-JaRf_K257pUA9tKJ0g3-42" value="" style="endArrow=none;html=1;" parent="1" edge="1">
          <mxGeometry width="50" height="50" relative="1" as="geometry">
            <mxPoint x="1540" y="370" as="sourcePoint" />
            <mxPoint x="1580" y="360" as="targetPoint" />
          </mxGeometry>
        </mxCell>
        <mxCell id="-JaRf_K257pUA9tKJ0g3-43" value="" style="endArrow=classic;html=1;rounded=0;exitX=1.15;exitY=0.55;exitDx=0;exitDy=0;exitPerimeter=0;entryX=0.45;entryY=0.75;entryDx=0;entryDy=0;entryPerimeter=0;" parent="1" source="-JaRf_K257pUA9tKJ0g3-41" target="-JaRf_K257pUA9tKJ0g3-17" edge="1">
          <mxGeometry width="50" height="50" relative="1" as="geometry">
            <mxPoint x="1330" y="240" as="sourcePoint" />
            <mxPoint x="1380" y="190" as="targetPoint" />
            <Array as="points">
              <mxPoint x="1640" y="360" />
              <mxPoint x="1640" y="260" />
            </Array>
          </mxGeometry>
        </mxCell>
        <mxCell id="-JaRf_K257pUA9tKJ0g3-45" value="" style="endArrow=classic;html=1;rounded=0;exitX=1;exitY=0.5;exitDx=0;exitDy=0;entryX=0.05;entryY=0.95;entryDx=0;entryDy=0;entryPerimeter=0;" parent="1" source="-JaRf_K257pUA9tKJ0g3-21" target="-JaRf_K257pUA9tKJ0g3-39" edge="1">
          <mxGeometry width="50" height="50" relative="1" as="geometry">
            <mxPoint x="1130" y="240" as="sourcePoint" />
            <mxPoint x="1180" y="190" as="targetPoint" />
            <Array as="points">
              <mxPoint x="1480" y="640" />
              <mxPoint x="1480" y="380" />
            </Array>
          </mxGeometry>
        </mxCell>
        <mxCell id="-JaRf_K257pUA9tKJ0g3-46" value="" style="endArrow=classic;html=1;rounded=0;exitX=1;exitY=0.5;exitDx=0;exitDy=0;entryX=0;entryY=0.25;entryDx=0;entryDy=0;" parent="1" source="-JaRf_K257pUA9tKJ0g3-5" target="g2HDWmR6_UbopgEiNKFt-1" edge="1">
          <mxGeometry width="50" height="50" relative="1" as="geometry">
            <mxPoint x="1130" y="240" as="sourcePoint" />
            <mxPoint x="1180" y="190" as="targetPoint" />
            <Array as="points">
              <mxPoint x="1280" y="360" />
              <mxPoint x="1280" y="420" />
            </Array>
          </mxGeometry>
        </mxCell>
        <mxCell id="-JaRf_K257pUA9tKJ0g3-47" value="" style="whiteSpace=wrap;html=1;aspect=fixed;" parent="1" vertex="1">
          <mxGeometry x="720" y="-40" width="80" height="80" as="geometry" />
        </mxCell>
        <mxCell id="-JaRf_K257pUA9tKJ0g3-48" value="" style="endArrow=none;html=1;startArrow=none;" parent="1" source="-JaRf_K257pUA9tKJ0g3-56" edge="1">
          <mxGeometry width="50" height="50" relative="1" as="geometry">
            <mxPoint x="780" as="sourcePoint" />
            <mxPoint x="800" as="targetPoint" />
          </mxGeometry>
        </mxCell>
        <mxCell id="-JaRf_K257pUA9tKJ0g3-49" value="" style="endArrow=none;html=1;" parent="1" edge="1">
          <mxGeometry width="50" height="50" relative="1" as="geometry">
            <mxPoint x="711" y="-20" as="sourcePoint" />
            <mxPoint x="741" y="-20" as="targetPoint" />
          </mxGeometry>
        </mxCell>
        <mxCell id="-JaRf_K257pUA9tKJ0g3-50" value="" style="endArrow=none;html=1;" parent="1" edge="1">
          <mxGeometry width="50" height="50" relative="1" as="geometry">
            <mxPoint x="710" y="-0.20000000000004547" as="sourcePoint" />
            <mxPoint x="740" y="-0.20000000000004547" as="targetPoint" />
          </mxGeometry>
        </mxCell>
        <mxCell id="-JaRf_K257pUA9tKJ0g3-51" value="" style="endArrow=none;html=1;" parent="1" edge="1">
          <mxGeometry width="50" height="50" relative="1" as="geometry">
            <mxPoint x="710" y="20" as="sourcePoint" />
            <mxPoint x="740" y="20" as="targetPoint" />
          </mxGeometry>
        </mxCell>
        <mxCell id="-JaRf_K257pUA9tKJ0g3-52" value="" style="shape=waypoint;sketch=0;fillStyle=solid;size=4;pointerEvents=1;points=[];fillColor=none;resizable=0;rotatable=0;perimeter=centerPerimeter;snapToPoint=1;" parent="1" vertex="1">
          <mxGeometry x="730" y="-30" width="20" height="20" as="geometry" />
        </mxCell>
        <mxCell id="-JaRf_K257pUA9tKJ0g3-53" value="" style="shape=waypoint;sketch=0;fillStyle=solid;size=4;pointerEvents=1;points=[];fillColor=none;resizable=0;rotatable=0;perimeter=centerPerimeter;snapToPoint=1;" parent="1" vertex="1">
          <mxGeometry x="730" y="-10" width="20" height="20" as="geometry" />
        </mxCell>
        <mxCell id="-JaRf_K257pUA9tKJ0g3-54" value="" style="shape=waypoint;sketch=0;fillStyle=solid;size=4;pointerEvents=1;points=[];fillColor=none;resizable=0;rotatable=0;perimeter=centerPerimeter;snapToPoint=1;" parent="1" vertex="1">
          <mxGeometry x="730" y="10" width="20" height="20" as="geometry" />
        </mxCell>
        <mxCell id="-JaRf_K257pUA9tKJ0g3-55" value="" style="endArrow=none;html=1;" parent="1" target="-JaRf_K257pUA9tKJ0g3-56" edge="1">
          <mxGeometry width="50" height="50" relative="1" as="geometry">
            <mxPoint x="780" as="sourcePoint" />
            <mxPoint x="800" as="targetPoint" />
          </mxGeometry>
        </mxCell>
        <mxCell id="-JaRf_K257pUA9tKJ0g3-56" value="" style="shape=waypoint;sketch=0;fillStyle=solid;size=4;pointerEvents=1;points=[];fillColor=none;resizable=0;rotatable=0;perimeter=centerPerimeter;snapToPoint=1;" parent="1" vertex="1">
          <mxGeometry x="771" y="-10" width="20" height="20" as="geometry" />
        </mxCell>
        <mxCell id="-JaRf_K257pUA9tKJ0g3-57" value="" style="endArrow=none;html=1;" parent="1" edge="1">
          <mxGeometry width="50" height="50" relative="1" as="geometry">
            <mxPoint x="740" y="10" as="sourcePoint" />
            <mxPoint x="780" as="targetPoint" />
          </mxGeometry>
        </mxCell>
        <mxCell id="-JaRf_K257pUA9tKJ0g3-58" value="&lt;span style=&quot;background-color: initial;&quot;&gt;$$Krd$$&lt;/span&gt;" style="whiteSpace=wrap;html=1;aspect=fixed;" parent="1" vertex="1">
          <mxGeometry x="560" y="40" width="80" height="80" as="geometry" />
        </mxCell>
        <mxCell id="-JaRf_K257pUA9tKJ0g3-59" value="&lt;span style=&quot;background-color: initial;&quot;&gt;$$Kru$$&lt;/span&gt;" style="whiteSpace=wrap;html=1;aspect=fixed;" parent="1" vertex="1">
          <mxGeometry x="560" y="-160" width="80" height="80" as="geometry" />
        </mxCell>
        <mxCell id="-JaRf_K257pUA9tKJ0g3-60" value="" style="whiteSpace=wrap;html=1;aspect=fixed;" parent="1" vertex="1">
          <mxGeometry x="720" y="-240" width="80" height="80" as="geometry" />
        </mxCell>
        <mxCell id="-JaRf_K257pUA9tKJ0g3-61" value="" style="endArrow=none;html=1;startArrow=none;" parent="1" source="-JaRf_K257pUA9tKJ0g3-69" edge="1">
          <mxGeometry width="50" height="50" relative="1" as="geometry">
            <mxPoint x="780" y="-200" as="sourcePoint" />
            <mxPoint x="800" y="-200" as="targetPoint" />
          </mxGeometry>
        </mxCell>
        <mxCell id="-JaRf_K257pUA9tKJ0g3-62" value="" style="endArrow=none;html=1;" parent="1" edge="1">
          <mxGeometry width="50" height="50" relative="1" as="geometry">
            <mxPoint x="711" y="-220" as="sourcePoint" />
            <mxPoint x="741" y="-220" as="targetPoint" />
          </mxGeometry>
        </mxCell>
        <mxCell id="-JaRf_K257pUA9tKJ0g3-63" value="" style="endArrow=none;html=1;" parent="1" edge="1">
          <mxGeometry width="50" height="50" relative="1" as="geometry">
            <mxPoint x="710" y="-200.20000000000005" as="sourcePoint" />
            <mxPoint x="740" y="-200.20000000000005" as="targetPoint" />
          </mxGeometry>
        </mxCell>
        <mxCell id="-JaRf_K257pUA9tKJ0g3-64" value="" style="endArrow=none;html=1;" parent="1" edge="1">
          <mxGeometry width="50" height="50" relative="1" as="geometry">
            <mxPoint x="710" y="-180" as="sourcePoint" />
            <mxPoint x="740" y="-180" as="targetPoint" />
          </mxGeometry>
        </mxCell>
        <mxCell id="-JaRf_K257pUA9tKJ0g3-65" value="" style="shape=waypoint;sketch=0;fillStyle=solid;size=4;pointerEvents=1;points=[];fillColor=none;resizable=0;rotatable=0;perimeter=centerPerimeter;snapToPoint=1;" parent="1" vertex="1">
          <mxGeometry x="730" y="-230" width="20" height="20" as="geometry" />
        </mxCell>
        <mxCell id="-JaRf_K257pUA9tKJ0g3-66" value="" style="shape=waypoint;sketch=0;fillStyle=solid;size=4;pointerEvents=1;points=[];fillColor=none;resizable=0;rotatable=0;perimeter=centerPerimeter;snapToPoint=1;" parent="1" vertex="1">
          <mxGeometry x="730" y="-210" width="20" height="20" as="geometry" />
        </mxCell>
        <mxCell id="-JaRf_K257pUA9tKJ0g3-67" value="" style="shape=waypoint;sketch=0;fillStyle=solid;size=4;pointerEvents=1;points=[];fillColor=none;resizable=0;rotatable=0;perimeter=centerPerimeter;snapToPoint=1;" parent="1" vertex="1">
          <mxGeometry x="730" y="-190" width="20" height="20" as="geometry" />
        </mxCell>
        <mxCell id="-JaRf_K257pUA9tKJ0g3-68" value="" style="endArrow=none;html=1;" parent="1" target="-JaRf_K257pUA9tKJ0g3-69" edge="1">
          <mxGeometry width="50" height="50" relative="1" as="geometry">
            <mxPoint x="780" y="-200" as="sourcePoint" />
            <mxPoint x="800" y="-200" as="targetPoint" />
          </mxGeometry>
        </mxCell>
        <mxCell id="-JaRf_K257pUA9tKJ0g3-69" value="" style="shape=waypoint;sketch=0;fillStyle=solid;size=4;pointerEvents=1;points=[];fillColor=none;resizable=0;rotatable=0;perimeter=centerPerimeter;snapToPoint=1;" parent="1" vertex="1">
          <mxGeometry x="771" y="-210" width="20" height="20" as="geometry" />
        </mxCell>
        <mxCell id="-JaRf_K257pUA9tKJ0g3-70" value="" style="endArrow=none;html=1;" parent="1" edge="1">
          <mxGeometry width="50" height="50" relative="1" as="geometry">
            <mxPoint x="740" y="-190" as="sourcePoint" />
            <mxPoint x="780" y="-200" as="targetPoint" />
          </mxGeometry>
        </mxCell>
        <mxCell id="-JaRf_K257pUA9tKJ0g3-71" value="&lt;span style=&quot;background-color: initial;&quot;&gt;$$Sw1$$&lt;/span&gt;" style="whiteSpace=wrap;html=1;aspect=fixed;" parent="1" vertex="1">
          <mxGeometry x="360" y="-200" width="80" height="80" as="geometry" />
        </mxCell>
        <mxCell id="-JaRf_K257pUA9tKJ0g3-73" value="" style="endArrow=classic;html=1;rounded=0;exitX=1;exitY=0.5;exitDx=0;exitDy=0;entryX=0.75;entryY=0.65;entryDx=0;entryDy=0;entryPerimeter=0;" parent="1" source="HV3P0yh9cOvrx5BpRkT5-26" target="-JaRf_K257pUA9tKJ0g3-52" edge="1">
          <mxGeometry width="50" height="50" relative="1" as="geometry">
            <mxPoint x="540" y="120" as="sourcePoint" />
            <mxPoint x="590" y="70" as="targetPoint" />
            <Array as="points">
              <mxPoint x="520" y="-40" />
              <mxPoint x="520" y="-20" />
            </Array>
          </mxGeometry>
        </mxCell>
        <mxCell id="-JaRf_K257pUA9tKJ0g3-74" value="" style="endArrow=classic;html=1;rounded=0;exitX=1;exitY=0.5;exitDx=0;exitDy=0;entryX=0.35;entryY=0.7;entryDx=0;entryDy=0;entryPerimeter=0;" parent="1" source="-JaRf_K257pUA9tKJ0g3-58" target="-JaRf_K257pUA9tKJ0g3-54" edge="1">
          <mxGeometry width="50" height="50" relative="1" as="geometry">
            <mxPoint x="540" y="120" as="sourcePoint" />
            <mxPoint x="590" y="70" as="targetPoint" />
            <Array as="points">
              <mxPoint x="680" y="80" />
              <mxPoint x="680" y="20" />
            </Array>
          </mxGeometry>
        </mxCell>
        <mxCell id="-JaRf_K257pUA9tKJ0g3-75" value="" style="endArrow=classic;html=1;rounded=0;exitX=1;exitY=0.5;exitDx=0;exitDy=0;entryX=-0.05;entryY=0.4;entryDx=0;entryDy=0;entryPerimeter=0;" parent="1" source="-JaRf_K257pUA9tKJ0g3-59" target="-JaRf_K257pUA9tKJ0g3-67" edge="1">
          <mxGeometry width="50" height="50" relative="1" as="geometry">
            <mxPoint x="540" y="120" as="sourcePoint" />
            <mxPoint x="590" y="70" as="targetPoint" />
            <Array as="points">
              <mxPoint x="680" y="-120" />
              <mxPoint x="680" y="-180" />
            </Array>
          </mxGeometry>
        </mxCell>
        <mxCell id="-JaRf_K257pUA9tKJ0g3-76" value="" style="endArrow=classic;html=1;rounded=0;exitX=1;exitY=0.5;exitDx=0;exitDy=0;entryX=0.6;entryY=0.2;entryDx=0;entryDy=0;entryPerimeter=0;" parent="1" source="HV3P0yh9cOvrx5BpRkT5-26" target="-JaRf_K257pUA9tKJ0g3-65" edge="1">
          <mxGeometry width="50" height="50" relative="1" as="geometry">
            <mxPoint x="540" y="120" as="sourcePoint" />
            <mxPoint x="590" y="70" as="targetPoint" />
            <Array as="points">
              <mxPoint x="520" y="-40" />
              <mxPoint x="520" y="-220" />
            </Array>
          </mxGeometry>
        </mxCell>
        <mxCell id="-JaRf_K257pUA9tKJ0g3-77" value="" style="endArrow=none;dashed=1;html=1;rounded=0;exitX=1;exitY=0.5;exitDx=0;exitDy=0;entryX=0;entryY=0.5;entryDx=0;entryDy=0;" parent="1" source="-JaRf_K257pUA9tKJ0g3-71" target="-JaRf_K257pUA9tKJ0g3-60" edge="1">
          <mxGeometry width="50" height="50" relative="1" as="geometry">
            <mxPoint x="540" y="120" as="sourcePoint" />
            <mxPoint x="590" y="70" as="targetPoint" />
            <Array as="points">
              <mxPoint x="480" y="-160" />
              <mxPoint x="480" y="-200" />
            </Array>
          </mxGeometry>
        </mxCell>
        <mxCell id="-JaRf_K257pUA9tKJ0g3-78" value="" style="endArrow=none;dashed=1;html=1;rounded=0;exitX=1;exitY=0.5;exitDx=0;exitDy=0;entryX=0.35;entryY=0.4;entryDx=0;entryDy=0;entryPerimeter=0;" parent="1" source="-JaRf_K257pUA9tKJ0g3-71" target="-JaRf_K257pUA9tKJ0g3-53" edge="1">
          <mxGeometry width="50" height="50" relative="1" as="geometry">
            <mxPoint x="540" y="120" as="sourcePoint" />
            <mxPoint x="590" y="70" as="targetPoint" />
            <Array as="points">
              <mxPoint x="480" y="-160" />
              <mxPoint x="480" />
            </Array>
          </mxGeometry>
        </mxCell>
        <mxCell id="-JaRf_K257pUA9tKJ0g3-79" value="" style="endArrow=none;dashed=1;html=1;rounded=0;exitX=1;exitY=0.2;exitDx=0;exitDy=0;exitPerimeter=0;" parent="1" source="-JaRf_K257pUA9tKJ0g3-69" target="-JaRf_K257pUA9tKJ0g3-15" edge="1">
          <mxGeometry width="50" height="50" relative="1" as="geometry">
            <mxPoint x="1140" y="120" as="sourcePoint" />
            <mxPoint x="1190" y="70" as="targetPoint" />
            <Array as="points">
              <mxPoint x="1520" y="-200" />
              <mxPoint x="1520" y="220" />
            </Array>
          </mxGeometry>
        </mxCell>
        <mxCell id="-JaRf_K257pUA9tKJ0g3-80" value="" style="endArrow=none;dashed=1;html=1;dashPattern=1 3;strokeWidth=2;rounded=0;exitX=1;exitY=0.5;exitDx=0;exitDy=0;entryX=0.35;entryY=0.2;entryDx=0;entryDy=0;entryPerimeter=0;" parent="1" source="-JaRf_K257pUA9tKJ0g3-47" target="-JaRf_K257pUA9tKJ0g3-37" edge="1">
          <mxGeometry width="50" height="50" relative="1" as="geometry">
            <mxPoint x="1140" y="120" as="sourcePoint" />
            <mxPoint x="1190" y="70" as="targetPoint" />
            <Array as="points">
              <mxPoint x="1480" />
              <mxPoint x="1480" y="340" />
            </Array>
          </mxGeometry>
        </mxCell>
        <mxCell id="g2HDWmR6_UbopgEiNKFt-1" value="&lt;span style=&quot;background-color: initial;&quot;&gt;$$or$$&lt;/span&gt;" style="whiteSpace=wrap;html=1;aspect=fixed;" vertex="1" parent="1">
          <mxGeometry x="1320" y="400" width="80" height="80" as="geometry" />
        </mxCell>
        <mxCell id="g2HDWmR6_UbopgEiNKFt-2" value="&lt;span style=&quot;background-color: initial;&quot;&gt;&lt;font style=&quot;font-size: 10px;&quot;&gt;$$&amp;lt; VtResetPu$$&lt;/font&gt;&lt;/span&gt;" style="whiteSpace=wrap;html=1;aspect=fixed;" vertex="1" parent="1">
          <mxGeometry x="1160" y="480" width="80" height="80" as="geometry" />
        </mxCell>
        <mxCell id="g2HDWmR6_UbopgEiNKFt-3" value="" style="endArrow=classic;html=1;rounded=0;exitX=1;exitY=0.5;exitDx=0;exitDy=0;entryX=0;entryY=0.75;entryDx=0;entryDy=0;" edge="1" parent="1" source="g2HDWmR6_UbopgEiNKFt-2" target="g2HDWmR6_UbopgEiNKFt-1">
          <mxGeometry width="50" height="50" relative="1" as="geometry">
            <mxPoint x="1490" y="310" as="sourcePoint" />
            <mxPoint x="1540" y="260" as="targetPoint" />
            <Array as="points">
              <mxPoint x="1280" y="520" />
              <mxPoint x="1280" y="460" />
            </Array>
          </mxGeometry>
        </mxCell>
        <mxCell id="g2HDWmR6_UbopgEiNKFt-5" value="" style="edgeStyle=orthogonalEdgeStyle;rounded=0;orthogonalLoop=1;jettySize=auto;html=1;" edge="1" parent="1" source="g2HDWmR6_UbopgEiNKFt-4" target="g2HDWmR6_UbopgEiNKFt-2">
          <mxGeometry relative="1" as="geometry" />
        </mxCell>
        <mxCell id="g2HDWmR6_UbopgEiNKFt-4" value="$$VtFiltPu$$" style="text;strokeColor=none;align=center;fillColor=none;html=1;verticalAlign=middle;whiteSpace=wrap;rounded=0;" vertex="1" parent="1">
          <mxGeometry x="1040" y="505" width="80" height="30" as="geometry" />
        </mxCell>
        <mxCell id="g2HDWmR6_UbopgEiNKFt-6" value="" style="endArrow=classic;html=1;rounded=0;exitX=1;exitY=0.5;exitDx=0;exitDy=0;" edge="1" parent="1" source="g2HDWmR6_UbopgEiNKFt-1" target="-JaRf_K257pUA9tKJ0g3-38">
          <mxGeometry width="50" height="50" relative="1" as="geometry">
            <mxPoint x="1450" y="310" as="sourcePoint" />
            <mxPoint x="1500" y="260" as="targetPoint" />
            <Array as="points">
              <mxPoint x="1440" y="440" />
              <mxPoint x="1440" y="360" />
            </Array>
          </mxGeometry>
        </mxCell>
        <mxCell id="g2HDWmR6_UbopgEiNKFt-12" value="" style="edgeStyle=orthogonalEdgeStyle;rounded=0;orthogonalLoop=1;jettySize=auto;html=1;" edge="1" parent="1" source="g2HDWmR6_UbopgEiNKFt-8" target="-JaRf_K257pUA9tKJ0g3-25">
          <mxGeometry relative="1" as="geometry" />
        </mxCell>
        <mxCell id="g2HDWmR6_UbopgEiNKFt-8" value="$$SCL$$&lt;div&gt;$$reference$$&lt;/div&gt;&lt;div&gt;$$logic$$&lt;/div&gt;" style="whiteSpace=wrap;html=1;aspect=fixed;" vertex="1" parent="1">
          <mxGeometry x="1840" y="200" width="80" height="80" as="geometry" />
        </mxCell>
        <mxCell id="g2HDWmR6_UbopgEiNKFt-10" value="$$IPRefPu$$" style="text;strokeColor=none;align=center;fillColor=none;html=1;verticalAlign=middle;whiteSpace=wrap;rounded=0;" vertex="1" parent="1">
          <mxGeometry x="1680" y="145" width="80" height="30" as="geometry" />
        </mxCell>
        <mxCell id="g2HDWmR6_UbopgEiNKFt-11" value="" style="endArrow=classic;html=1;rounded=0;exitX=1;exitY=0.5;exitDx=0;exitDy=0;entryX=0;entryY=0.25;entryDx=0;entryDy=0;" edge="1" parent="1" source="g2HDWmR6_UbopgEiNKFt-10" target="g2HDWmR6_UbopgEiNKFt-8">
          <mxGeometry width="50" height="50" relative="1" as="geometry">
            <mxPoint x="1480" y="260" as="sourcePoint" />
            <mxPoint x="1530" y="210" as="targetPoint" />
            <Array as="points">
              <mxPoint x="1800" y="160" />
              <mxPoint x="1800" y="220" />
            </Array>
          </mxGeometry>
        </mxCell>
      </root>
    </mxGraphModel>
  </diagram>
</mxfile>
